<?xml version="1.0" encoding="utf-8"?>
<!-- Generator: Adobe Illustrator 16.0.0, SVG Export Plug-In . SVG Version: 6.00 Build 0)  -->
<!DOCTYPE svg PUBLIC "-//W3C//DTD SVG 1.1//EN" "http://www.w3.org/Graphics/SVG/1.1/DTD/svg11.dtd">
<svg version="1.1" id="Layer_2" xmlns="http://www.w3.org/2000/svg" xmlns:xlink="http://www.w3.org/1999/xlink" x="0px" y="0px"
	 width="916.75px" height="272.5px" viewBox="22.25 137.5 916.75 272.5" enable-background="new 22.25 137.5 916.75 272.5"
	 xml:space="preserve">
<g id="Layer_1">
	<path display="none" fill="#FFFFFF" d="M0,754c0-320.333,0-640.667,0-961c320.333,0,640.667,0,961,0c0,320.333,0,640.667,0,961
		C640.667,754,320.333,754,0,754z M151.833,305.219c-0.08-0.103-0.16-0.203-0.24-0.304c-0.022,0.101-0.045,0.201-0.067,0.303
		c0.113-0.015,0.225-0.03,0.339-0.044c0.03,0.348-0.052,0.764,0.11,1.034c3.111,5.217,6.193,10.456,9.455,15.577
		c0.45,0.704,1.825,1.103,2.783,1.127c1.402,0.032,2.814-0.404,4.224-0.635c7.242-1.183,13.727-4.128,19.381-8.354
		c1.791,1.688,3.656,3.124,5.114,4.896c1.721,2.091,3.604,2.901,6.367,2.803c6.513-0.229,13.038-0.073,20.029-0.073
		c-0.713-0.75-1.079-1.135-1.446-1.521c-5.681-5.969-11.333-11.965-17.07-17.88c-0.955-0.982-1.086-1.633-0.382-2.836
		c3.354-5.711,5.434-11.922,6.513-18.428c0.619-3.723,0.806-7.518,1.19-11.301c-5.272,0-10.026,0-14.853,0
		c-0.141,6.995-1.243,13.598-4.312,20.105c-6.144-6.422-12.074-12.619-17.712-18.509c3.836-3.869,7.819-7.277,11.066-11.281
		c8.444-10.411,5.472-25.429-6.249-31.321c-9.06-4.555-18.584-4.681-27.81-0.485c-8.507,3.87-12.655,10.92-12.741,20.248
		c-0.049,5.431,2.372,10.015,5.463,14.28c1.399,1.931,2.918,3.774,4.301,5.553c-3.002,2.83-5.881,5.584-8.81,8.282
		c-1.2,1.105-1.273,2.066-0.375,3.497c3.188,5.076,6.22,10.249,9.327,15.376c0.242,0.397,0.603,0.728,1.236,1.476
		c-0.498-8.136,4.499-12.346,9.848-16.576c7.326,7.777,14.537,15.436,21.772,23.115
		C169.997,309.688,161.736,310.217,151.833,305.219z M158.527,322.86c0.122-0.012,0.241-0.021,0.362-0.031
		c-0.049-0.164-0.098-0.328-0.146-0.491c-0.342-0.63-0.66-1.273-1.029-1.888c-13.64-22.667-27.285-45.331-40.93-67.996
		c-4.618-7.67-9.237-15.339-13.864-23.003c-1.346-2.23-2.894-4.377-5.605-4.907c-5.089-0.996-8.062,0.447-10.83,5.055
		c-18.277,30.42-36.539,60.848-54.8,91.279c-0.346,0.577-0.622,1.197-1.054,2.036c6.017,0,11.688-0.068,17.355,0.043
		c1.605,0.032,2.402-0.557,3.182-1.884c11.753-19.974,23.558-39.915,35.356-59.863c2.465-4.167,4.948-8.323,7.647-12.864
		c7.245,12.17,14.271,23.973,21.505,36.124c-7.731,0-14.956,0.44-22.096-0.137c-5.794-0.47-9.476,1.134-11.543,6.692
		c-0.915,2.457-2.607,4.629-4.203,7.371c1.39,0,2.167,0,2.942,0c13.689,0.004,27.378,0.035,41.066-0.029
		c1.573-0.008,2.415,0.474,3.202,1.828c4.093,7.05,8.266,14.055,12.518,21.008c0.478,0.782,1.624,1.618,2.476,1.634
		C146.199,322.961,152.364,322.878,158.527,322.86z M210.674,267.138c-0.192,2.631-0.385,5.262-0.578,7.893
		c-0.571,8.402-2.758,16.363-6.661,23.826c-0.598,1.143-0.708,1.828,0.302,2.871c6.411,6.604,12.692,13.33,19.116,19.921
		c0.716,0.732,2.056,1.203,3.11,1.211c12.731,0.082,25.464,0.075,38.197,0.034c2.716-0.008,5.456-0.062,8.143-0.411
		c11.116-1.452,19.505-6.705,23.873-17.454c1.699-4.184,1.764-8.533,1.778-12.961c0.028-9.045-4.239-15.312-11.991-19.495
		c-0.744-0.401-1.529-0.723-2.248-1.06c1.835-1.1,3.626-2.005,5.23-3.169c5.973-4.335,7.251-10.773,7.501-17.545
		c0.366-9.886-4.99-18.043-13.992-22.071c-5.834-2.611-12.015-3.179-18.204-3.22c-22.742-0.148-45.485-0.059-68.228-0.059
		c-0.763,0-1.525,0-2.226,0c0,13.983,0,27.637,0,41.403c1.669,0,3.183-0.025,4.697,0.005
		C202.555,266.938,206.616,267.042,210.674,267.138z M522.621,272.37c4.089-2.204,4.698-5.891,3.818-9.866
		c-0.858-3.886-3.834-5.716-7.582-6.354c-1.411-0.24-2.854-0.399-4.282-0.411c-6.001-0.045-12.002-0.019-18.003-0.019
		c-2.375,0-4.754,0-7.206,0c0,11.958,0,23.667,0,35.44c9.562,0,18.992,0.158,28.407-0.122c2.124-0.063,4.559-1.237,6.23-2.64
		C528.986,284.229,528.27,276.969,522.621,272.37z M341.303,398.239c0-83.245,0-166.304,0-249.442c-0.958,0-1.786,0-2.698,0
		c0,83.208,0,166.271,0,249.442C339.505,398.239,340.279,398.239,341.303,398.239z M404.389,282.787
		c-4.548-8.649-8.953-17.066-13.423-25.449c-0.353-0.663-1.121-1.483-1.762-1.545c-2.038-0.2-4.108-0.074-6.525-0.074
		c0.483,0.982,0.802,1.682,1.165,2.359c1.96,3.661,3.924,7.319,5.897,10.973c3.644,6.747,7.254,13.512,10.958,20.225
		c1.87,3.389,5.124,3.326,7.002-0.058c1.357-2.442,2.64-4.929,3.968-7.388c0.345-0.641,0.737-1.256,1.256-2.134
		c1.654,3.139,3.12,5.885,4.551,8.649c0.861,1.667,1.708,3.353,3.933,3.374c2.199,0.021,3.123-1.561,4.024-3.244
		c5.587-10.415,11.212-20.809,16.815-31.215c0.24-0.445,0.395-0.936,0.646-1.544c-1.578,0-2.951,0.124-4.293-0.029
		c-1.916-0.22-2.952,0.489-3.84,2.247c-3.235,6.414-6.66,12.733-10.024,19.081c-0.973,1.832-1.989,3.639-3.082,5.633
		c-0.354-0.646-0.556-0.988-0.733-1.345c-4.027-7.987-8.039-15.982-12.102-23.95c-0.324-0.636-0.965-1.512-1.52-1.559
		c-2.163-0.182-4.349-0.074-6.896-0.074c2.896,5.521,5.592,10.583,8.186,15.698c0.419,0.826,0.812,2.093,0.474,2.802
		C407.699,277.092,406.042,279.821,404.389,282.787z M590.03,266.625c2.378,8.684,4.561,16.656,6.714,24.521
		c2.207,0,4.172,0,6.261,0c-2.945-10.871-5.842-21.585-8.752-32.298c-0.446-1.645-0.899-3.35-3.035-3.513
		c-2.189-0.168-3.012,1.354-3.748,3.063c-3.034,7.04-6.109,14.063-9.188,21.084c-0.322,0.738-0.757,1.427-1.321,2.479
		c-3.506-8.059-6.828-15.664-10.117-23.283c-0.8-1.854-1.711-3.548-4.102-3.339c-2.218,0.194-2.633,1.955-3.104,3.717
		c-1.879,7.024-3.812,14.034-5.729,21.049c-1.001,3.657-2.009,7.312-3.07,11.177c0.719,0,1.109-0.005,1.502,0
		c4.741,0.057,4.739,0.057,5.953-4.425c1.771-6.534,3.547-13.068,5.469-20.147c0.596,1.292,0.972,2.065,1.312,2.854
		c2.829,6.52,5.562,13.084,8.562,19.527c0.535,1.146,2.124,2.392,3.303,2.468c1.015,0.067,2.197-1.395,3.182-2.313
		c0.431-0.401,0.555-1.134,0.81-1.718C583.861,280.796,586.792,274.065,590.03,266.625z M923.896,284.948
		c-5.312,0-10.354,0.161-15.38-0.038c-7.111-0.285-12.073-7.459-10.073-14.28c1.712-5.838,5.337-8.574,11.392-8.58
		c6.058-0.006,12.115-0.001,18.292-0.001c0-2.201,0-4.154,0-6.268c-6.737,0-13.361-0.176-19.974,0.042
		c-9.442,0.312-15.957,6.989-16.335,16.384c-0.396,9.843,5.74,18.051,15.001,18.794c7.77,0.625,15.63,0.129,23.564,0.129
		c0-6.821,0-13.589,0-20.595c-3.783,0-7.444,0-11.105,0c-3.653,0-7.306,0-11.021,0c0,1.901,0,3.538,0,5.396
		c5.266,0,10.42,0,15.639,0C923.896,279.003,923.896,281.848,923.896,284.948z M667.061,262.136c6.977,0,13.757-0.188,20.521,0.08
		c3.39,0.134,5.054,2.344,5.312,5.723c0.398,5.195-1.944,7.86-7.152,7.944c-4.771,0.077-9.549,0.017-14.396,0.017
		c0,1.911,0,3.566,0,5.553c3.819,0,7.566-0.121,11.296,0.068c1.189,0.062,2.596,0.676,3.449,1.504
		c2.292,2.222,4.329,4.703,6.494,7.058c0.415,0.45,0.942,1.104,1.438,1.126c2.729,0.109,5.463,0.053,8.195,0.053
		c0.144-0.273,0.288-0.548,0.432-0.82c-3.479-3.283-6.959-6.565-10.554-9.956c3.382-1.598,5.573-3.999,6.529-7.446
		c2.715-9.796-2.784-17.204-12.933-17.302c-7.762-0.075-15.522-0.019-23.285-0.006c-0.521,0.001-1.043,0.14-1.521,0.207
		c0,11.82,0,23.472,0,35.206c2.074,0,4.023,0,6.176,0C667.061,281.439,667.061,271.875,667.061,262.136z M853.485,291.198
		c0-8.533,0-16.862,0-25.275c8.064,8.007,15.963,15.839,23.854,23.681c1.335,1.324,2.688,2.686,4.791,1.808
		c2.013-0.841,1.995-2.685,1.994-4.481c-0.005-9.77,0.001-19.537-0.009-29.305c0-0.608-0.096-1.217-0.146-1.816
		c-1.995,0-3.816,0-5.995,0c0,8.316,0,16.548,0,24.78c-0.217,0.095-0.433,0.188-0.647,0.281c-0.602-0.743-1.141-1.549-1.813-2.217
		c-7.385-7.332-14.75-14.686-22.25-21.897c-0.863-0.831-2.755-1.44-3.747-1.057c-0.995,0.384-1.501,2.118-2.14,3.305
		c-0.168,0.312-0.037,0.787-0.037,1.187c0,9.608-0.003,19.216,0.004,28.823c0,0.703,0.067,1.406,0.107,2.186
		C849.421,291.198,851.242,291.198,853.485,291.198z M607.605,290.908c4.967,1.462,8.317,0.134,10-4.639
		c0.312-0.887,0.949-1.658,1.438-2.482c3.827-6.448,7.653-12.896,11.609-19.563c2.574,4.372,5.009,8.502,7.729,13.117
		c-2.952,0-5.023,0-7.098,0c-4.271,0-4.777,0.391-6.267,5.075c4.941,0,9.795-0.074,14.643,0.064
		c0.906,0.027,2.087,0.699,2.624,1.445c1.396,1.938,2.46,4.11,3.754,6.127c0.337,0.524,1.008,1.135,1.562,1.17
		c2.102,0.139,4.217,0.057,6.633,0.057c-0.408-0.797-0.596-1.221-0.831-1.613c-6.387-10.613-12.764-21.232-19.174-31.83
		c-2.163-3.575-4.611-3.507-6.825,0.143c-2.697,4.44-5.369,8.896-8.046,13.349C615.455,277.821,611.561,284.318,607.605,290.908z
		 M785.507,284.923c-8.464,0-16.824,0-25.212,0c0-7.732,0-15.213,0-22.95c8.496,0,16.852,0,25.172,0c0-2.217,0-4.174,0-6.085
		c-10.592,0-21.031,0-31.38,0c0,11.89,0,23.612,0,35.276c10.567,0,20.952,0,31.42,0C785.507,289.091,785.507,287.13,785.507,284.923
		z M449.755,291.131c10.545,0,20.822,0,31.092,0c0-2.107,0-4.068,0-6.236c-8.329,0-16.529,0-24.79,0c0-7.689,0-15.163,0-22.855
		c8.336,0,16.533,0,24.738,0c0-2.24,0-4.252,0-6.154c-10.469,0-20.751,0-31.041,0C449.755,267.704,449.755,279.36,449.755,291.131z
		 M805.074,262.093c0,9.821,0,19.443,0,29.105c2.2,0,4.104,0,6.303,0c0-9.698,0-19.32,0-29.218c4.557,0,8.82,0,13.006,0
		c0-2.239,0-4.194,0-6.107c-11.064,0-21.973,0-32.848,0c0,2.111,0,4.067,0,6.22C796.049,262.093,800.416,262.093,805.074,262.093z
		 M746.673,255.718c-2.712,0-4.696,0.137-6.655-0.036c-2.231-0.198-3.935,0.562-5.654,1.936
		c-5.128,4.093-10.319,8.114-15.606,11.998c-3.025,2.222-3.248,4.368-0.111,6.76c5.982,4.56,11.846,9.278,17.775,13.907
		c0.544,0.425,1.223,0.929,1.854,0.951c2.826,0.103,5.659,0.045,9.114,0.045c-8.283-6.285-16.021-12.156-23.976-18.19
		C731.083,267.361,738.567,261.771,746.673,255.718z M832.132,255.817c0,11.908,0,23.625,0,35.369c2.069,0,3.97,0,5.995,0
		c0-11.818,0-23.546,0-35.369C836.107,255.817,834.207,255.817,832.132,255.817z M708.645,255.816c0,11.91,0,23.627,0,35.37
		c2.069,0,3.971,0,5.995,0c0-11.82,0-23.547,0-35.37C712.617,255.816,710.719,255.816,708.645,255.816z M479.847,270.682
		c-6.604,0-13.021,0-19.479,0c0,1.778,0,3.409,0,5.083c6.549,0,12.966,0,19.479,0C479.847,274.061,479.847,272.492,479.847,270.682z
		 M764.658,275.774c6.584,0,13.007,0,19.474,0c0-1.763,0-3.396,0-5.094c-6.543,0-12.957,0-19.474,0
		C764.658,272.392,764.658,273.962,764.658,275.774z"/>
	<path fill="#F2F1F0" d="M210.675,267.137c-4.06-0.095-8.12-0.199-12.181-0.28c-1.514-0.03-3.028-0.005-4.697-0.005
		c0-13.766,0-27.42,0-41.403c0.701,0,1.463,0,2.226,0c22.742,0,45.485-0.089,68.228,0.059c6.188,0.041,12.369,0.609,18.204,3.22
		c9.002,4.028,14.358,12.186,13.992,22.071c-0.25,6.772-1.528,13.21-7.501,17.545c-1.604,1.164-3.395,2.069-5.23,3.169
		c0.719,0.336,1.504,0.659,2.248,1.06c7.751,4.185,12.019,10.45,11.991,19.495c-0.015,4.428-0.08,8.777-1.778,12.961
		c-4.367,10.749-12.757,16.002-23.873,17.454c-2.688,0.351-5.427,0.403-8.143,0.411c-12.732,0.041-25.465,0.048-38.197-0.034
		c-1.054-0.008-2.394-0.479-3.11-1.211c-6.424-6.591-12.706-13.317-19.116-19.921c-1.011-1.043-0.9-1.729-0.302-2.871
		c3.903-7.463,6.09-15.424,6.661-23.826c0.205-0.002,0.41-0.004,0.615-0.006c0,10.216,0,20.433,0,30.743
		c0.687,0.064,1.071,0.137,1.454,0.137c15.769,0.007,31.54,0.057,47.307-0.023c5.032-0.023,10.083-0.266,14.76-2.537
		c3.185-1.546,5.522-3.85,6.285-7.398c1.614-7.523-2.207-13.375-9.75-14.897c-1.63-0.33-3.335-0.396-5.007-0.399
		c-13.367-0.031-26.736-0.018-40.104-0.018c-0.855,0-1.713,0-2.623,0c0-4.938,0-9.605,0-14.417c9.994,0,19.827,0.012,29.661-0.005
		c4.721-0.008,9.466,0.225,14.156-0.168c9.59-0.804,11.686-3.225,11.839-12.73c0.071-4.361-1.562-7.251-5.7-8.698
		c-2.895-1.011-6.05-1.751-9.096-1.784c-17.368-0.188-34.738-0.127-52.108-0.143c-0.299,0-0.599,0.121-1.074,0.222
		c0,8.121,0,16.191,0,24.261L210.675,267.137z"/>
	<path fill="#F2F1F0" d="M158.527,322.86c-6.163,0.018-12.328,0.101-18.488-0.022c-0.852-0.016-1.998-0.852-2.476-1.634
		c-4.251-6.953-8.424-13.958-12.518-21.009c-0.787-1.354-1.629-1.834-3.202-1.827c-13.688,0.065-27.377,0.034-41.066,0.028
		c-0.776,0-1.553,0-2.942,0c1.596-2.742,3.289-4.912,4.203-7.371c2.067-5.559,5.749-7.16,11.543-6.691
		c7.141,0.577,14.365,0.137,22.096,0.137c-7.233-12.151-14.26-23.954-21.505-36.124c-2.699,4.541-5.182,8.697-7.647,12.864
		c-11.798,19.948-23.603,39.891-35.356,59.863c-0.78,1.327-1.576,1.916-3.182,1.884c-5.668-0.111-11.339-0.043-17.355-0.043
		c0.432-0.839,0.708-1.459,1.054-2.036c18.261-30.43,36.523-60.858,54.8-91.279c2.769-4.608,5.741-6.05,10.83-5.055
		c2.711,0.53,4.259,2.677,5.605,4.907c4.626,7.664,9.246,15.333,13.864,23.003c13.645,22.665,27.29,45.329,40.93,67.996
		c0.369,0.613,0.687,1.258,1.028,1.888C158.67,322.512,158.599,322.688,158.527,322.86z"/>
	<path fill="#F2F1F0" d="M151.833,305.219c9.903,4.998,18.164,4.471,26.451-1.873c-7.235-7.681-14.446-15.339-21.772-23.116
		c-5.349,4.23-10.346,8.44-9.848,16.575c-0.634-0.748-0.995-1.076-1.236-1.475c-3.107-5.127-6.139-10.3-9.327-15.376
		c-0.899-1.431-0.825-2.392,0.375-3.497c2.929-2.698,5.808-5.452,8.81-8.282c-1.383-1.779-2.902-3.623-4.301-5.553
		c-3.091-4.265-5.512-8.849-5.463-14.28c0.086-9.328,4.233-16.378,12.741-20.248c9.226-4.196,18.75-4.069,27.81,0.485
		c11.72,5.892,14.693,20.91,6.249,31.321c-3.247,4.004-7.23,7.412-11.066,11.281c5.638,5.891,11.568,12.088,17.712,18.51
		c3.069-6.51,4.171-13.111,4.312-20.106c4.827,0,9.581,0,14.853,0c-0.384,3.783-0.571,7.578-1.19,11.301
		c-1.079,6.505-3.159,12.716-6.513,18.429c-0.705,1.203-0.573,1.853,0.382,2.836c5.736,5.914,11.389,11.91,17.07,17.879
		c0.367,0.388,0.733,0.771,1.446,1.521c-6.991,0-13.516-0.156-20.029,0.073c-2.763,0.1-4.646-0.712-6.367-2.803
		c-1.458-1.772-3.323-3.209-5.114-4.896c-5.654,4.226-12.14,7.171-19.381,8.354c-1.41,0.229-2.822,0.667-4.224,0.635
		c-0.958-0.024-2.333-0.423-2.783-1.127c-3.262-5.121-6.344-10.36-9.455-15.577c-0.162-0.271-0.08-0.688-0.11-1.034L151.833,305.219
		z M159.676,259.316c3.019-2.443,5.958-4.43,8.416-6.897c4.112-4.125,2.895-11.174-2.401-12.879c-2.608-0.84-5.998-0.775-8.579,0.15
		c-5.028,1.803-6.56,7.816-3.506,12.178C155.335,254.34,157.414,256.566,159.676,259.316z"/>
	<path fill="#F2F1F0" d="M522.621,272.37c5.647,4.599,6.365,11.858,1.384,16.03c-1.673,1.4-4.106,2.574-6.231,2.639
		c-9.414,0.281-18.845,0.122-28.406,0.122c0-11.773,0-23.482,0-35.44c2.452,0,4.831,0,7.206,0c6.001,0,12.002-0.026,18.003,0.019
		c1.429,0.011,2.871,0.171,4.281,0.411c3.748,0.638,6.725,2.468,7.582,6.354C527.319,266.479,526.71,270.166,522.621,272.37z
		 M495.822,262.05c0,7.767,0,15.304,0,22.978c6.022,0,11.858,0.027,17.694-0.022c1.249-0.011,2.526-0.188,3.74-0.487
		c2.75-0.674,3.906-2.259,3.664-4.78c-0.225-2.337-1.895-3.771-4.696-3.816c-4.083-0.065-8.166-0.019-12.251-0.019
		c-1.401,0-2.805,0-4.07,0c0-2.003,0-3.641,0-5.365c4.823,0,9.467,0.02,14.107-0.013c1.189-0.009,2.398-0.073,3.562-0.303
		c1.94-0.384,2.726-1.776,2.806-3.658c0.08-1.904-0.712-3.311-2.531-3.902c-1.125-0.365-2.352-0.575-3.535-0.585
		C508.229,262.02,502.145,262.05,495.822,262.05z"/>
	<path fill="#B5B4B4" d="M342.303,398.239c-1.924,0-3.379,0-5.073,0c0-83.173,0-166.234,0-249.442c1.715,0,3.272,0,5.073,0
		C342.303,231.935,342.303,314.994,342.303,398.239z"/>
	<path fill="#F2F1F0" d="M404.389,282.787c1.652-2.966,3.311-5.695,4.676-8.563c0.338-0.709-0.055-1.976-0.474-2.802
		c-2.594-5.114-5.291-10.176-8.186-15.698c2.547,0,4.732-0.107,6.896,0.074c0.555,0.047,1.195,0.923,1.52,1.559
		c4.062,7.968,8.073,15.963,12.102,23.95c0.179,0.355,0.38,0.699,0.733,1.346c1.093-1.995,2.109-3.802,3.082-5.634
		c3.366-6.348,6.79-12.667,10.024-19.081c0.888-1.758,1.923-2.467,3.84-2.247c1.342,0.153,2.715,0.029,4.292,0.029
		c-0.252,0.608-0.405,1.099-0.646,1.544c-5.604,10.406-11.229,20.8-16.815,31.213c-0.902,1.686-1.825,3.268-4.024,3.246
		c-2.225-0.021-3.071-1.707-3.933-3.375c-1.431-2.765-2.896-5.511-4.551-8.648c-0.52,0.878-0.911,1.492-1.256,2.134
		c-1.328,2.459-2.61,4.944-3.968,7.388c-1.879,3.385-5.132,3.445-7.002,0.059c-3.704-6.713-7.314-13.479-10.958-20.225
		c-1.973-3.654-3.938-7.312-5.897-10.973c-0.363-0.677-0.682-1.377-1.165-2.359c2.417,0,4.487-0.126,6.525,0.074
		c0.642,0.062,1.409,0.882,1.762,1.545C395.437,265.721,399.841,274.138,404.389,282.787z"/>
	<path fill="#F2F1F0" d="M590.03,266.625c-3.238,7.44-6.169,14.17-9.102,20.9c-0.255,0.586-0.379,1.316-0.81,1.719
		c-0.983,0.92-2.167,2.382-3.182,2.314c-1.179-0.078-2.768-1.322-3.303-2.469c-2.999-6.441-5.732-13.007-8.562-19.527
		c-0.342-0.789-0.718-1.562-1.312-2.854c-1.922,7.08-3.696,13.613-5.469,20.148c-1.214,4.479-1.212,4.479-5.953,4.424
		c-0.393-0.004-0.783,0-1.502,0c1.062-3.864,2.069-7.52,3.07-11.177c1.917-7.015,3.851-14.025,5.729-21.049
		c0.473-1.762,0.888-3.523,3.104-3.717c2.391-0.209,3.302,1.484,4.102,3.339c3.289,7.619,6.611,15.224,10.117,23.283
		c0.564-1.052,0.999-1.74,1.321-2.479c3.077-7.021,6.152-14.044,9.188-21.084c0.736-1.709,1.559-3.231,3.748-3.063
		c2.136,0.164,2.589,1.869,3.035,3.513c2.91,10.712,5.807,21.428,8.752,32.299c-2.089,0-4.054,0-6.261,0
		C594.591,283.281,592.408,275.31,590.03,266.625z"/>
	<path fill="#F2F1F0" d="M923.896,284.948c0-3.103,0-5.945,0-9.016c-5.219,0-10.372,0-15.639,0c0-1.858,0-3.496,0-5.396
		c3.715,0,7.366,0,11.021,0c3.661,0,7.322,0,11.105,0c0,7.006,0,13.772,0,20.595c-7.936,0-15.796,0.496-23.564-0.129
		c-9.261-0.743-15.397-8.951-15.001-18.794c0.378-9.395,6.893-16.073,16.335-16.384c6.611-0.218,13.235-0.042,19.974-0.042
		c0,2.114,0,4.067,0,6.268c-6.177,0-12.234-0.005-18.292,0.001c-6.055,0.006-9.68,2.741-11.392,8.58
		c-2,6.821,2.962,13.995,10.073,14.28C913.544,285.109,918.585,284.948,923.896,284.948z"/>
	<path fill="#F2F1F0" d="M667.061,262.136c0,9.739,0,19.304,0,29.007c-2.15,0-4.101,0-6.175,0c0-11.733,0-23.386,0-35.206
		c0.479-0.067,0.999-0.206,1.521-0.207c7.763-0.013,15.523-0.069,23.285,0.006c10.147,0.098,15.646,7.505,12.933,17.302
		c-0.956,3.447-3.147,5.848-6.529,7.446c3.594,3.39,7.073,6.672,10.553,9.956c-0.143,0.272-0.287,0.547-0.431,0.82
		c-2.732,0-5.468,0.059-8.196-0.053c-0.495-0.021-1.022-0.676-1.438-1.126c-2.165-2.354-4.202-4.836-6.494-7.058
		c-0.854-0.828-2.26-1.442-3.449-1.504c-3.729-0.189-7.477-0.068-11.296-0.068c0-1.986,0-3.642,0-5.553
		c4.849,0,9.625,0.061,14.396-0.017c5.208-0.084,7.552-2.749,7.152-7.944c-0.259-3.378-1.923-5.588-5.312-5.723
		C680.816,261.947,674.036,262.136,667.061,262.136z"/>
	<path fill="#F2F1F0" d="M853.485,291.198c-2.243,0-4.064,0-6.036,0c-0.04-0.778-0.107-1.481-0.107-2.185
		c-0.007-9.607-0.004-19.216-0.004-28.824c0-0.4-0.131-0.875,0.037-1.187c0.639-1.187,1.144-2.92,2.14-3.305
		c0.992-0.383,2.884,0.226,3.747,1.057c7.5,7.211,14.865,14.565,22.25,21.897c0.674,0.668,1.213,1.474,1.813,2.217
		c0.216-0.094,0.432-0.188,0.647-0.281c0-8.232,0-16.464,0-24.78c2.179,0,4,0,5.995,0c0.051,0.599,0.146,1.208,0.146,1.816
		c0.01,9.768,0.004,19.535,0.009,29.304c0.001,1.799,0.019,3.644-1.994,4.482c-2.104,0.878-3.456-0.482-4.791-1.809
		c-7.891-7.84-15.788-15.672-23.854-23.68C853.485,274.336,853.485,282.665,853.485,291.198z"/>
	<path fill="#F2F1F0" d="M607.605,290.908c3.954-6.59,7.85-13.087,11.75-19.58c2.678-4.453,5.35-8.909,8.047-13.349
		c2.214-3.65,4.662-3.718,6.824-0.143c6.411,10.597,12.788,21.216,19.175,31.83c0.235,0.393,0.423,0.816,0.831,1.613
		c-2.416,0-4.531,0.082-6.633-0.057c-0.555-0.035-1.226-0.646-1.562-1.171c-1.294-2.016-2.358-4.188-3.754-6.126
		c-0.537-0.746-1.718-1.418-2.624-1.445c-4.848-0.14-9.7-0.064-14.643-0.064c1.488-4.685,1.994-5.075,6.267-5.075
		c2.072,0,4.146,0,7.098,0c-2.72-4.615-5.153-8.745-7.729-13.117c-3.956,6.667-7.782,13.115-11.609,19.563
		c-0.488,0.824-1.125,1.597-1.438,2.482C615.924,291.042,612.572,292.37,607.605,290.908z"/>
	<path fill="#F2F1F0" d="M785.507,284.923c0,2.207,0,4.168,0,6.241c-10.468,0-20.853,0-31.42,0c0-11.664,0-23.386,0-35.276
		c10.349,0,20.788,0,31.38,0c0,1.912,0,3.868,0,6.085c-8.32,0-16.676,0-25.172,0c0,7.737,0,15.217,0,22.95
		C768.683,284.923,777.043,284.923,785.507,284.923z"/>
	<path fill="#F2F1F0" d="M449.755,291.131c0-11.771,0-23.427,0-35.247c10.29,0,20.571,0,31.041,0c0,1.902,0,3.915,0,6.154
		c-8.205,0-16.401,0-24.738,0c0,7.693,0,15.166,0,22.854c8.261,0,16.46,0,24.79,0c0,2.17,0,4.129,0,6.237
		C470.578,291.131,460.301,291.131,449.755,291.131z"/>
	<path fill="#F2F1F0" d="M805.074,262.093c-4.658,0-9.025,0-13.539,0c0-2.153,0-4.109,0-6.22c10.875,0,21.782,0,32.848,0
		c0,1.913,0,3.869,0,6.107c-4.186,0-8.449,0-13.006,0c0,9.898,0,19.52,0,29.217c-2.199,0-4.103,0-6.303,0
		C805.074,281.536,805.074,271.914,805.074,262.093z"/>
	<path fill="#F2F1F0" d="M746.673,255.718c-8.104,6.054-15.59,11.643-23.259,17.37c7.953,6.034,15.692,11.905,23.976,18.189
		c-3.455,0-6.288,0.059-9.113-0.045c-0.634-0.021-1.312-0.525-1.855-0.95c-5.931-4.628-11.793-9.349-17.774-13.907
		c-3.138-2.392-2.914-4.538,0.11-6.76c5.287-3.884,10.479-7.905,15.606-11.998c1.721-1.374,3.423-2.134,5.654-1.936
		C741.977,255.855,743.961,255.718,746.673,255.718z"/>
	<path fill="#F2F1F0" d="M832.132,255.817c2.075,0,3.977,0,5.995,0c0,11.822,0,23.55,0,35.369c-2.025,0-3.926,0-5.995,0
		C832.132,279.442,832.132,267.725,832.132,255.817z"/>
	<path fill="#F2F1F0" d="M708.645,255.816c2.074,0,3.974,0,5.995,0c0,11.822,0,23.549,0,35.37c-2.024,0-3.926,0-5.995,0
		C708.645,279.443,708.645,267.727,708.645,255.816z"/>
	<path fill="#F2F1F0" d="M479.847,270.682c0,1.81,0,3.378,0,5.083c-6.513,0-12.93,0-19.479,0c0-1.675,0-3.305,0-5.083
		C466.826,270.682,473.242,270.682,479.847,270.682z"/>
	<path fill="#F2F1F0" d="M764.658,275.774c0-1.812,0-3.383,0-5.094c6.517,0,12.931,0,19.474,0c0,1.698,0,3.331,0,5.094
		C777.665,275.774,771.242,275.774,764.658,275.774z"/>
	<path fill="#F2F1F0" d="M210.711,275.025c-0.205,0.002-0.41,0.004-0.615,0.006c0.192-2.631,0.386-5.262,0.579-7.894l0.037,0.032
		C210.712,269.788,210.712,272.407,210.711,275.025z"/>
	<path fill="#F2F1F0" d="M151.865,305.174c-0.114,0.014-0.226,0.029-0.339,0.044c0.022-0.102,0.045-0.202,0.067-0.303
		c0.08,0.101,0.16,0.201,0.24,0.304L151.865,305.174z"/>
	<path fill="#F2F1F0" d="M158.527,322.86c0.072-0.175,0.144-0.35,0.215-0.522c0.049,0.163,0.098,0.327,0.147,0.491
		C158.768,322.839,158.648,322.85,158.527,322.86z"/>
</g>
</svg>
