<?xml version="1.0" standalone="no"?>
<!DOCTYPE svg PUBLIC "-//W3C//DTD SVG 20010904//EN"
 "http://www.w3.org/TR/2001/REC-SVG-20010904/DTD/svg10.dtd">
<svg version="1.0" xmlns="http://www.w3.org/2000/svg"
 width="1187.000000pt" height="1187.000000pt" viewBox="0 0 1187.000000 1187.000000"
 preserveAspectRatio="xMidYMid meet">
<metadata>
Created by potrace 1.11, written by Peter Selinger 2001-2013
</metadata>
<g transform="translate(0.000000,1187.000000) scale(0.100000,-0.100000)"
fill="#000000" stroke="none">
<path d="M10269 11831 c-35 -34 -39 -44 -39 -87 0 -31 7 -61 20 -81 39 -65 24
-63 612 -63 l533 0 -724 -724 -725 -725 -80 76 c-343 323 -820 656 -1271 889
-719 371 -1460 579 -2299 644 -193 15 -667 12 -883 -5 -1113 -90 -2160 -483
-3048 -1145 -174 -130 -308 -242 -496 -415 -187 -173 -209 -209 -175 -288 8
-18 228 -245 512 -529 396 -393 506 -497 531 -503 63 -13 91 3 207 113 594
563 1335 942 2141 1096 1189 226 2436 -67 3390 -798 108 -83 335 -276 335
-285 0 -3 -173 -179 -384 -390 l-385 -385 -43 40 c-259 239 -650 474 -998 601
-388 141 -703 197 -1115 197 -242 0 -346 -8 -555 -45 -512 -89 -990 -302
-1406 -625 -122 -94 -292 -251 -309 -284 -19 -37 -19 -93 -1 -128 18 -33 982
-995 1013 -1011 28 -14 89 -14 116 1 12 6 56 42 97 80 206 190 494 328 791
379 106 18 149 21 299 16 197 -6 306 -25 471 -83 165 -57 350 -159 459 -253
l35 -30 -530 -530 -530 -531 -2870 0 c-2827 0 -2870 0 -2902 -20 -66 -40 -67
-43 -60 -318 6 -249 22 -431 57 -665 22 -142 37 -180 80 -202 26 -13 645 -15
5648 -15 l5620 0 -19 -87 c-30 -138 -96 -388 -132 -503 l-33 -105 -5413 -5
-5413 -5 -33 -37 c-53 -58 -53 -85 0 -228 134 -359 394 -890 457 -930 20 -13
590 -16 4921 -20 l4898 -5 -92 -135 c-105 -154 -231 -321 -348 -462 l-81 -98
-4278 0 c-4123 0 -4279 -1 -4311 -18 -37 -20 -71 -73 -71 -110 0 -49 33 -94
190 -255 290 -299 560 -527 910 -773 l85 -59 2975 -5 2975 -5 -222 -111 c-724
-363 -1483 -552 -2335 -582 -201 -7 -207 -8 -234 -32 -56 -52 -65 -122 -23
-181 34 -49 61 -53 297 -46 953 27 1903 295 2733 772 220 127 356 220 374 256
20 38 16 96 -10 135 -38 58 190 54 -3260 54 l-3177 0 -115 82 c-219 156 -540
426 -683 572 l-44 46 4156 0 c3163 0 4163 3 4183 12 62 28 407 465 588 745
143 221 177 286 177 335 0 48 -22 87 -63 111 -17 9 -1056 13 -4996 17 l-4975
5 -96 190 c-53 105 -126 260 -162 345 l-66 155 5362 5 c4167 4 5366 8 5382 17
33 19 48 49 92 183 104 318 212 770 212 889 0 54 -23 92 -70 116 -26 13 -708
15 -5664 15 -5358 0 -5635 1 -5640 18 -15 49 -56 507 -56 625 l0 57 2830 0
c2435 0 2835 2 2858 14 15 8 304 293 643 633 490 491 618 624 622 649 11 59
-9 98 -88 173 -258 245 -602 410 -972 466 -129 20 -408 20 -538 0 -315 -48
-616 -177 -860 -369 l-70 -55 -385 385 -385 385 55 50 c30 28 101 85 157 127
647 484 1452 680 2243 546 569 -96 1059 -337 1501 -737 59 -53 119 -101 134
-107 72 -27 64 -34 598 499 274 273 505 508 513 523 18 35 18 81 0 117 -18 33
-182 191 -316 303 -690 579 -1513 928 -2430 1033 -299 35 -746 30 -1065 -11
-907 -116 -1756 -503 -2443 -1114 l-94 -83 -384 384 -385 384 78 74 c167 159
444 378 673 531 205 137 392 245 630 364 617 307 1237 485 1960 563 236 25
855 25 1090 0 444 -48 817 -127 1205 -254 773 -252 1516 -690 2085 -1228 182
-172 185 -175 230 -175 23 0 51 5 63 11 12 6 372 360 800 788 l777 776 0 -535
c0 -513 1 -536 20 -567 25 -42 68 -63 126 -63 41 0 51 5 85 39 l39 39 0 737 0
737 -39 39 -39 39 -737 0 -737 0 -39 -39z"/>
</g>
</svg>
